<svg version="1.1" xmlns="http://www.w3.org/2000/svg" viewBox="-283.647998046875 -1631.8720962524415 7208.192422485351 2478.3361724853517"><desc>Created with Snap</desc><defs></defs><g><g transform="matrix(30.5563,0,0,30.5563,4478.4013,-1691.3481)"><g><path fill="#e0e0e0" d="M39.5,73C22.7,73,9,59.3,9,42.5S22.7,12,39.5,12S70,25.7,70,42.5S56.3,73,39.5,73z M39.5,14   C23.8,14,11,26.8,11,42.5S23.8,71,39.5,71S68,58.2,68,42.5S55.2,14,39.5,14z" style=""></path></g><g><path fill="#e0e0e0" d="M39.5,47c-7.9,0-15.4-0.4-21-1.2C10.1,44.7,9,43.3,9,42s1.1-2.7,9.5-3.8c5.6-0.8,13.1-1.2,21-1.2   s15.4,0.4,21,1.2c8.4,1.1,9.5,2.6,9.5,3.8s-1.1,2.7-9.5,3.8C54.9,46.6,47.4,47,39.5,47z M11.2,42c1.8,1.3,12.2,3,28.3,3   s26.6-1.7,28.3-3c-1.8-1.3-12.2-3-28.3-3S12.9,40.7,11.2,42z" style=""></path></g><g><path fill="#e0e0e0" d="M39.5,73C29.9,73,22,59.3,22,42.5S29.9,12,39.5,12S57,25.7,57,42.5S49.1,73,39.5,73z M39.5,14   C31,14,24,26.8,24,42.5S31,71,39.5,71S55,58.2,55,42.5S48,14,39.5,14z" style=""></path></g><desc>Created with Snap</desc><defs></defs></g><g><g transform="matrix(1.024,0,0,-1.024,0,0)"><path d="M210 720Q176 720 150 694Q125 669 125 634Q125 606 138 578Q152 551 183 516L284 398Q327 348 350 311Q374 275 383 241Q393 208 393 167Q393 118 368 78Q343 38 301 14Q259 -10 208 -10Q171 -10 148 -3Q125 4 111 11Q98 18 88 18Q78 18 69 12Q60 7 58 0L23 0L23 212L57 212Q71 132 107 86Q143 41 191 41Q233 41 257 69Q282 97 282 145Q282 184 263 223Q244 263 202 311L118 408Q66 469 45 511Q24 554 24 602Q24 644 49 680Q74 716 114 738Q155 760 201 760Q239 760 255 766Q271 772 279 788L313 788L357 607L323 598Q304 648 288 674Q272 700 254 710Q237 720 210 720ZM441 0L441 37Q473 37 487 47Q501 57 501 80L501 460Q501 483 487 493Q473 503 441 503L441 540L737 540Q763 540 774 544Q785 549 786 559L819 559L860 397L827 388Q809 436 792 460Q776 485 750 493Q725 501 681 501L610 501L610 286L682 286Q721 286 721 338L753 338L753 186L721 186Q721 247 682 247L610 247L610 39L714 39Q759 39 783 49Q808 59 819 87Q831 116 837 171L870 171L870 -21L836 -21Q832 -9 817 -5Q802 0 767 0L441 0ZM1124 550Q1160 550 1176 547Q1192 544 1199 560L1233 560L1274 399L1240 390Q1222 437 1206 463Q1190 489 1170 499Q1151 510 1123 510Q1086 510 1061 479Q1036 449 1036 404L1036 131Q1036 85 1062 56Q1089 27 1132 27Q1178 27 1206 71Q1235 115 1235 184L1235 200L1276 200L1276 199Q1276 90 1235 37Q1195 -15 1111 -15Q1025 -15 975 42Q926 99 926 199L926 336Q926 550 1124 550ZM1720 460L1720 204Q1720 -10 1553 -10Q1467 -10 1417 47Q1368 104 1368 204L1368 460Q1368 483 1354 493Q1340 503 1308 503L1308 540L1538 540L1538 503Q1506 503 1492 493Q1478 483 1478 460L1478 136Q1478 90 1504 61Q1531 32 1574 32Q1620 32 1648 76Q1677 120 1677 189L1677 460Q1677 484 1664 493Q1651 503 1617 503L1617 540L1780 540L1780 503Q1746 503 1733 493Q1720 484 1720 460ZM1812 0L1812 37Q1844 37 1858 47Q1872 57 1872 80L1872 460Q1872 483 1858 493Q1844 503 1812 503L1812 540L2048 540Q2140 540 2183 498Q2226 456 2226 367Q2226 324 2204 292Q2182 261 2134 237Q2218 202 2218 112Q2218 81 2230 59Q2243 37 2261 37L2267 37L2267 0L2258 0Q2185 0 2150 27Q2116 54 2116 112Q2116 155 2094 186Q2072 218 2043 218L2022 218L2022 255L2048 255Q2081 255 2101 282Q2121 309 2121 353L2121 404Q2121 448 2101 474Q2081 501 2048 501L1982 501L1982 80Q1982 57 1996 47Q2010 37 2042 37L2042 0L1812 0ZM2296 0L2296 37Q2328 37 2342 47Q2356 57 2356 80L2356 460Q2356 483 2342 493Q2328 503 2296 503L2296 540L2526 540L2526 503Q2494 503 2480 493Q2466 483 2466 460L2466 80Q2466 57 2480 47Q2494 37 2526 37L2526 0L2296 0ZM2580 0L2580 37Q2612 37 2626 47Q2640 57 2640 80L2640 670Q2640 693 2626 703Q2612 713 2580 713L2580 750L2836 750Q3024 750 3024 537L3024 474Q3024 262 2836 262L2792 262L2792 302L2836 302Q2869 302 2889 329Q2909 356 2909 400L2909 614Q2909 657 2888 683Q2868 710 2836 710L2752 710L2752 80Q2752 57 2766 47Q2780 37 2812 37L2812 0L2580 0ZM3168 145L3147 81Q3140 61 3156 49Q3173 37 3207 37L3207 0L3040 0L3040 37Q3067 37 3081 47Q3095 57 3102 81L3252 544L3300 544L3456 79Q3465 53 3476 45Q3487 37 3518 37L3518 0L3288 0L3288 37Q3362 37 3349 78L3328 145L3168 145ZM3250 393L3181 183L3316 183L3250 393ZM3715 550Q3745 550 3761 546Q3778 543 3786 544Q3795 545 3800 558L3834 558L3875 397L3841 388Q3816 457 3790 483Q3765 509 3724 509Q3693 509 3670 487Q3648 466 3648 435Q3648 407 3662 388Q3676 370 3712 350L3820 291Q3863 268 3886 228Q3910 189 3910 139Q3910 98 3886 64Q3863 30 3823 10Q3784 -10 3735 -10Q3698 -10 3675 -3Q3652 4 3638 11Q3625 18 3615 18Q3592 18 3585 0L3550 0L3550 198L3584 198Q3598 119 3633 76Q3669 33 3720 33Q3743 33 3763 46Q3784 59 3797 79Q3810 99 3810 121Q3810 174 3740 213L3652 262Q3553 316 3553 402Q3553 441 3576 475Q3599 509 3636 529Q3673 550 3715 550ZM4147 550Q4177 550 4193 546Q4210 543 4218 544Q4227 545 4232 558L4266 558L4307 397L4273 388Q4248 457 4222 483Q4197 509 4156 509Q4125 509 4102 487Q4080 466 4080 435Q4080 407 4094 388Q4108 370 4144 350L4252 291Q4295 268 4318 228Q4342 189 4342 139Q4342 98 4318 64Q4295 30 4255 10Q4216 -10 4167 -10Q4130 -10 4107 -3Q4084 4 4070 11Q4057 18 4047 18Q4024 18 4017 0L3982 0L3982 198L4016 198Q4030 119 4065 76Q4101 33 4152 33Q4175 33 4195 46Q4216 59 4229 79Q4242 99 4242 121Q4242 174 4172 213L4084 262Q3985 316 3985 402Q3985 441 4008 475Q4031 509 4068 529Q4105 550 4147 550Z" fill="#195190" style=""></path></g></g></g></svg>